<?xml version="1.0" encoding="UTF-8" standalone="no"?>
<!-- Created with Inkscape (http://www.inkscape.org/) -->

<svg
   xmlns:dc="http://purl.org/dc/elements/1.1/"
   xmlns:cc="http://creativecommons.org/ns#"
   xmlns:rdf="http://www.w3.org/1999/02/22-rdf-syntax-ns#"
   xmlns:svg="http://www.w3.org/2000/svg"
   xmlns="http://www.w3.org/2000/svg"
   xmlns:xlink="http://www.w3.org/1999/xlink"
   xmlns:sodipodi="http://sodipodi.sourceforge.net/DTD/sodipodi-0.dtd"
   xmlns:inkscape="http://www.inkscape.org/namespaces/inkscape"
   width="34.237083mm"
   height="34.237083mm"
   viewBox="0 0 34.237083 34.237083"
   version="1.1"
   id="svg8"
   inkscape:version="0.92.4 (5da689c313, 2019-01-14)"
   sodipodi:docname="special_black.svg">
  <defs
     id="defs2">
    <path
       id="i2dCEMQRD2"
       d="m 378.4,282.1 c 0,19.26 0,44.94 0,64.2 0,17.73 -14.38,32.1 -32.1,32.1 -19.26,0 -44.94,0 -64.2,0 -17.73,0 -32.1,-14.37 -32.1,-32.1 0,-19.26 0,-44.94 0,-64.2 0,-17.72 14.37,-32.1 32.1,-32.1 19.26,0 44.94,0 64.2,0 17.72,0 32.1,14.38 32.1,32.1 z"
       inkscape:connector-curvature="0" />
    <path
       id="au0ZqnCEJ"
       d="m 270.87,301.46 42.91,-30.59 42.9,30.59 -16.38,49.46 h -53.05 z"
       inkscape:connector-curvature="0" />
    <path
       id="au84yH5UF"
       d="m 356.68,327.81 -43.49,29.85 -42.31,-31.29 17.35,-49.2 53.03,0.89 z"
       inkscape:connector-curvature="0" />
    <path
       id="bbXbU2mbSU"
       d="m 313.77,354.2 c -22.08,0 -40,-17.93 -40,-40 0,-22.08 17.92,-40 40,-40 22.08,0 40,17.92 40,40 0,22.07 -17.92,40 -40,40 z"
       inkscape:connector-curvature="0" />
  </defs>
  <sodipodi:namedview
     id="base"
     pagecolor="#ffffff"
     bordercolor="#666666"
     borderopacity="1.0"
     inkscape:pageopacity="0.0"
     inkscape:pageshadow="2"
     inkscape:zoom="0.35"
     inkscape:cx="-429.58571"
     inkscape:cy="-252.44286"
     inkscape:document-units="mm"
     inkscape:current-layer="layer1"
     showgrid="false"
     fit-margin-top="0"
     fit-margin-left="0"
     fit-margin-right="0"
     fit-margin-bottom="0"
     inkscape:window-width="2560"
     inkscape:window-height="1377"
     inkscape:window-x="-8"
     inkscape:window-y="322"
     inkscape:window-maximized="1" />
  <metadata
     id="metadata5">
    <rdf:RDF>
      <cc:Work
         rdf:about="">
        <dc:format>image/svg+xml</dc:format>
        <dc:type
           rdf:resource="http://purl.org/dc/dcmitype/StillImage" />
        <dc:title></dc:title>
      </cc:Work>
    </rdf:RDF>
  </metadata>
  <g
     inkscape:label="Layer 1"
     inkscape:groupmode="layer"
     id="layer1"
     transform="translate(-87.202887,-47.804078)">
    <g
       id="g855"
       transform="matrix(0.26458333,0,0,0.26458333,21.189346,-18.209463)">
      <g
         id="g853">
        <g
           id="g827">
          <use
             id="use821"
             xlink:href="#i2dCEMQRD2"
             style="opacity:1;fill:#000000;fill-opacity:0"
             x="0"
             y="0"
             width="100%"
             height="100%" />
          <g
             id="g825">
            <use
               id="use823"
               xlink:href="#i2dCEMQRD2"
               style="opacity:1;fill-opacity:0;stroke:#740000;stroke-width:1;stroke-opacity:1"
               x="0"
               y="0"
               width="100%"
               height="100%" />
          </g>
        </g>
        <g
           id="g835">
          <use
             id="use829"
             xlink:href="#au0ZqnCEJ"
             style="opacity:1;fill:#000000;fill-opacity:0"
             x="0"
             y="0"
             width="100%"
             height="100%" />
          <g
             id="g833">
            <use
               id="use831"
               xlink:href="#au0ZqnCEJ"
               style="opacity:1;fill-opacity:0;stroke:#2a1d1d;stroke-width:1;stroke-opacity:1"
               x="0"
               y="0"
               width="100%"
               height="100%" />
          </g>
        </g>
        <g
           id="g843">
          <use
             id="use837"
             xlink:href="#au84yH5UF"
             style="opacity:1;fill:#000000;fill-opacity:0"
             x="0"
             y="0"
             width="100%"
             height="100%" />
          <g
             id="g841">
            <use
               id="use839"
               xlink:href="#au84yH5UF"
               style="opacity:1;fill-opacity:0;stroke:#2a1d1d;stroke-width:1;stroke-opacity:1"
               x="0"
               y="0"
               width="100%"
               height="100%" />
          </g>
        </g>
        <g
           id="g851">
          <use
             id="use845"
             xlink:href="#bbXbU2mbSU"
             style="opacity:1;fill:#414141;fill-opacity:1"
             x="0"
             y="0"
             width="100%"
             height="100%" />
          <g
             id="g849">
            <use
               id="use847"
               xlink:href="#bbXbU2mbSU"
               style="opacity:1;fill-opacity:0;stroke:#000000;stroke-width:1;stroke-opacity:0"
               x="0"
               y="0"
               width="100%"
               height="100%" />
          </g>
        </g>
      </g>
    </g>
  </g>
</svg>
